<?xml version="1.0" encoding="UTF-8" standalone="no"?>
<!-- Created with Inkscape (http://www.inkscape.org/) -->

<svg
   width="100"
   height="100"
   viewBox="0 0 26.458333 26.458333"
   version="1.1"
   id="svg1"
   inkscape:version="1.3.2 (091e20e, 2023-11-25)"
   sodipodi:docname="circle-fill-1.svg"
   xmlns:inkscape="http://www.inkscape.org/namespaces/inkscape"
   xmlns:sodipodi="http://sodipodi.sourceforge.net/DTD/sodipodi-0.dtd"
   xmlns="http://www.w3.org/2000/svg"
   xmlns:svg="http://www.w3.org/2000/svg">
  <sodipodi:namedview
     id="namedview1"
     pagecolor="#ffffff"
     bordercolor="#000000"
     borderopacity="0.25"
     inkscape:showpageshadow="2"
     inkscape:pageopacity="0.0"
     inkscape:pagecheckerboard="0"
     inkscape:deskcolor="#d1d1d1"
     inkscape:document-units="mm"
     inkscape:zoom="6.7277216"
     inkscape:cx="57.077273"
     inkscape:cy="47.861671"
     inkscape:window-width="1920"
     inkscape:window-height="1147"
     inkscape:window-x="0"
     inkscape:window-y="25"
     inkscape:window-maximized="1"
     inkscape:current-layer="layer1" />
  <defs
     id="defs1" />
  <g
     inkscape:label="Layer 1"
     inkscape:groupmode="layer"
     id="layer1">
    <path
       id="path1"
       style="fill:#000000;stroke-width:0.264583;fill-opacity:1"
       d="M 13.229167 3.003951 A 10.225105 10.225105 0 0 0 3.003951 13.229167 A 10.225105 10.225105 0 0 0 13.229167 23.454382 A 10.225105 10.225105 0 0 0 23.454382 13.229167 A 10.225105 10.225105 0 0 0 13.229167 3.003951 z M 13.229167 5.383134 A 7.8458018 7.8458018 0 0 1 21.075199 13.229167 A 7.8458018 7.8458018 0 0 1 13.229167 21.075199 A 7.8458018 7.8458018 0 0 1 5.383134 13.229167 A 7.8458018 7.8458018 0 0 1 13.229167 5.383134 z " />
    <circle
       style="fill:#1a1a1a;fill-opacity:1;stroke-width:0.129379"
       id="path1-2-2"
       cx="13.229167"
       cy="13.229167"
       r="5" />
  </g>
</svg>
