<?xml version="1.0" encoding="UTF-8" standalone="no"?>
<!-- Created with Inkscape (http://www.inkscape.org/) -->

<svg
   width="100"
   height="100"
   viewBox="0 0 26.458333 26.458333"
   version="1.1"
   id="svg1"
   inkscape:version="1.3.2 (091e20e, 2023-11-25)"
   sodipodi:docname="circle-x-1.svg"
   xmlns:inkscape="http://www.inkscape.org/namespaces/inkscape"
   xmlns:sodipodi="http://sodipodi.sourceforge.net/DTD/sodipodi-0.dtd"
   xmlns="http://www.w3.org/2000/svg"
   xmlns:svg="http://www.w3.org/2000/svg">
  <sodipodi:namedview
     id="namedview1"
     pagecolor="#ffffff"
     bordercolor="#000000"
     borderopacity="0.25"
     inkscape:showpageshadow="2"
     inkscape:pageopacity="0.0"
     inkscape:pagecheckerboard="0"
     inkscape:deskcolor="#d1d1d1"
     inkscape:document-units="mm"
     inkscape:zoom="6.7277216"
     inkscape:cx="86.582061"
     inkscape:cy="47.861671"
     inkscape:window-width="1920"
     inkscape:window-height="1147"
     inkscape:window-x="0"
     inkscape:window-y="25"
     inkscape:window-maximized="0"
     inkscape:current-layer="layer1" />
  <defs
     id="defs1" />
  <g
     inkscape:label="Layer 1"
     inkscape:groupmode="layer"
     id="layer1">
    <path
       id="path1"
       style="fill:#000000;stroke-width:0.264583;fill-opacity:1"
       d="M 13.229167 3.003951 A 10.225105 10.225105 0 0 0 3.003951 13.229167 A 10.225105 10.225105 0 0 0 13.229167 23.454382 A 10.225105 10.225105 0 0 0 23.454382 13.229167 A 10.225105 10.225105 0 0 0 13.229167 3.003951 z M 9.5518717 7.5540609 C 9.9215086 7.5540609 10.291313 7.6956063 10.574548 7.9788411 L 13.229167 10.633459 L 15.883785 7.9788411 C 16.450255 7.4123714 17.362152 7.4123714 17.928621 7.9788411 L 18.479492 8.5297119 C 19.045962 9.0961817 19.045962 10.008079 18.479492 10.574548 L 15.824874 13.229167 L 18.479492 15.883785 C 19.045962 16.450255 19.045962 17.362152 18.479492 17.928621 L 17.928621 18.479492 C 17.362152 19.045962 16.450255 19.045962 15.883785 18.479492 L 13.229167 15.824874 L 10.574548 18.479492 C 10.008079 19.045962 9.0961817 19.045962 8.5297119 18.479492 L 7.9788411 17.928621 C 7.4123714 17.362152 7.4123714 16.450255 7.9788411 15.883785 L 10.633459 13.229167 L 7.9788411 10.574548 C 7.4123714 10.008079 7.4123714 9.0961817 7.9788411 8.5297119 L 8.5297119 7.9788411 C 8.8129468 7.6956063 9.1822349 7.5540609 9.5518717 7.5540609 z " />
  </g>
</svg>
