<svg xmlns="http://www.w3.org/2000/svg" xmlns:xlink="http://www.w3.org/1999/xlink" width="100" height="100" viewBox="0 0 26.458 26.458"><defs><linearGradient id="a"><stop offset="0" style="stop-color:#000;stop-opacity:1"/></linearGradient><linearGradient xlink:href="#a" id="b" x1=".382" x2="26.077" y1="13.229" y2="13.229" gradientTransform="matrix(.91245 0 0 .91245 1.158 1.158)" gradientUnits="userSpaceOnUse"/></defs><path d="M13.229.448C6.182.448.448 6.182.448 13.228c0 4.76 2.617 8.918 6.487 11.118l1.197-1.741a10.65 10.65 0 0 1-5.567-9.376A10.65 10.65 0 0 1 13.229 2.565a10.65 10.65 0 0 1 10.666 10.664c0 4.095-2.295 7.641-5.672 9.429l1.221 1.732c3.913-2.188 6.566-6.37 6.566-11.161C26.01 6.182 20.275.448 13.229.448" style="fill:url(#b);paint-order:markers fill stroke"/><path d="M5.748 19.42V7.064h2.356V19.42Zm11.245-6.195q0 1.555-.243 2.747-.237 1.183-.718 1.994-.474.803-1.178 1.217-.697.406-1.618.406-.914 0-1.618-.414t-1.185-1.217q-.48-.811-.724-2.003t-.244-2.747q0-2.062.427-3.474.433-1.411 1.272-2.138.847-.727 2.072-.727 1.232 0 2.065.719.84.718 1.266 2.138.426 1.411.426 3.499m-5.077 0q0 1.26.149 2.104.149.846.44 1.268.298.414.73.414.448 0 .732-.405.291-.406.427-1.243.142-.845.142-2.138 0-1.96-.325-2.89-.318-.939-.975-.939-.433 0-.731.431-.291.423-.44 1.277-.15.845-.15 2.12m6.438 6.195V7.064h2.356V19.42Z" aria-label="IOI" style="-inkscape-font-specification:&quot;Open Sans Condensed, &quot;;stroke-width:10.3278;paint-order:markers fill stroke"/></svg>