<?xml version="1.0" encoding="UTF-8" standalone="no"?>
<!-- Created with Inkscape (http://www.inkscape.org/) -->

<svg
   width="100"
   height="100"
   viewBox="0 0 26.458333 26.458333"
   version="1.1"
   id="svg1"
   xmlns:xlink="http://www.w3.org/1999/xlink"
   xmlns="http://www.w3.org/2000/svg"
   xmlns:svg="http://www.w3.org/2000/svg">
  <defs
     id="defs1">
    <linearGradient
       id="swatch1">
      <stop
         style="stop-color:#000000;stop-opacity:1;"
         offset="0"
         id="stop1" />
    </linearGradient>
    <linearGradient
       xlink:href="#swatch1"
       id="linearGradient1"
       x1="0.38158321"
       y1="13.229167"
       x2="26.076752"
       y2="13.229167"
       gradientUnits="userSpaceOnUse"
       gradientTransform="matrix(0.91244999,0,0,0.9124498,1.1582116,1.158213)" />
  </defs>
  <g
     id="layer1">
    <path
       d="m 13.22865,0.4475179 c -7.0462638,0 -12.7811321,5.7348692 -12.7811321,12.7811321 0,4.759236 2.617923,8.917413 6.4874593,11.117151 L 8.1318034,22.604822 C 4.8115395,20.800013 2.5647013,17.283266 2.5647013,13.22865 c 0,-5.9023335 4.761614,-10.6639487 10.6639487,-10.6639487 5.902334,0 10.666016,4.7616152 10.666016,10.6639487 0,4.095817 -2.295001,7.641529 -5.671489,9.429399 l 1.221114,1.732194 c 3.912346,-2.187947 6.565491,-6.37044 6.565491,-11.161593 0,-7.0462629 -5.734869,-12.7811321 -12.781132,-12.7811321 z"
       style="fill:url(#linearGradient1);paint-order:markers fill stroke"
       id="path7" />
    <path
       style="-inkscape-font-specification:'Open Sans Condensed, ';stroke-width:10.3278;paint-order:markers fill stroke"
       d="M 5.7483193,19.420118 V 7.0635705 H 8.1042785 V 19.420118 Z M 16.993286,13.224941 q 0,1.555132 -0.24372,2.746838 -0.23695,1.183254 -0.71762,1.994627 -0.4739,0.802922 -1.17798,1.217061 -0.69731,0.405687 -1.618029,0.405687 -0.91395,0 -1.61803,-0.414139 -0.70408,-0.414138 -1.184749,-1.21706 Q 9.9524883,17.14658 9.7087684,15.954875 9.4650485,14.76317 9.4650485,13.208037 q 0,-2.062242 0.4265098,-3.4736945 0.4332797,-1.411452 1.2727597,-2.138307 0.846249,-0.726856 2.071619,-0.726856 1.232139,0 2.064849,0.718404 0.83948,0.718403 1.265989,2.138308 0.426511,1.4114525 0.426511,3.4990495 z m -5.077498,0 q 0,1.25932 0.148939,2.1045 0.14894,0.845181 0.44005,1.267772 0.29788,0.414138 0.73116,0.414138 0.44682,0 0.73116,-0.405686 0.29111,-0.405687 0.42651,-1.242416 0.142169,-0.845181 0.142169,-2.138308 0,-1.96082 -0.324959,-2.890519 -0.318191,-0.9381515 -0.97488,-0.9381515 -0.43328,0 -0.73116,0.431042 -0.29111,0.4225915 -0.44005,1.2762235 -0.148939,0.845182 -0.148939,2.121405 z m 6.438268,6.195177 V 7.0635705 h 2.355958 V 19.420118 Z"
       id="text1"
       aria-label="IOI" />
  </g>
</svg>
