<?xml version="1.0" encoding="UTF-8" standalone="no"?>
<!-- Created with Inkscape (http://www.inkscape.org/) -->

<svg
   width="100"
   height="100"
   viewBox="0 0 26.458333 26.458333"
   version="1.1"
   id="svg1"
   inkscape:version="1.3.2 (091e20e, 2023-11-25)"
   sodipodi:docname="rect-minus-1.svg"
   xmlns:inkscape="http://www.inkscape.org/namespaces/inkscape"
   xmlns:sodipodi="http://sodipodi.sourceforge.net/DTD/sodipodi-0.dtd"
   xmlns="http://www.w3.org/2000/svg"
   xmlns:svg="http://www.w3.org/2000/svg">
  <sodipodi:namedview
     id="namedview1"
     pagecolor="#ffffff"
     bordercolor="#000000"
     borderopacity="0.25"
     inkscape:showpageshadow="2"
     inkscape:pageopacity="0.0"
     inkscape:pagecheckerboard="0"
     inkscape:deskcolor="#d1d1d1"
     inkscape:document-units="mm"
     inkscape:zoom="6.7277216"
     inkscape:cx="86.65638"
     inkscape:cy="47.861671"
     inkscape:window-width="1920"
     inkscape:window-height="1147"
     inkscape:window-x="0"
     inkscape:window-y="25"
     inkscape:window-maximized="1"
     inkscape:current-layer="layer1" />
  <defs
     id="defs1" />
  <g
     inkscape:label="Layer 1"
     inkscape:groupmode="layer"
     id="layer1">
    <path
       id="rect1"
       style="fill:#000000;fill-opacity:1;stroke-width:0.352774"
       d="M 6.5055461 3.003951 C 4.5659178 3.003951 3.003951 4.5659178 3.003951 6.5055461 L 3.003951 19.952787 C 3.003951 21.892416 4.5659178 23.454382 6.5055461 23.454382 L 19.952787 23.454382 C 21.892416 23.454382 23.454382 21.892416 23.454382 19.952787 L 23.454382 6.5055461 C 23.454382 4.5659178 21.892416 3.003951 19.952787 3.003951 L 6.5055461 3.003951 z M 7.6398437 11.39362 L 18.81849 11.39362 C 19.6196 11.39362 20.264913 12.038933 20.264913 12.840043 L 20.264913 13.61829 C 20.264913 14.4194 19.6196 15.064714 18.81849 15.064714 L 7.6398437 15.064714 C 6.8387337 15.064714 6.1934204 14.4194 6.1934204 13.61829 L 6.1934204 12.840043 C 6.1934204 12.038933 6.8387337 11.39362 7.6398437 11.39362 z " />
  </g>
</svg>
