<?xml version="1.0" encoding="UTF-8" standalone="no"?>
<!-- Created with Inkscape (http://www.inkscape.org/) -->

<svg
   width="100"
   height="100"
   viewBox="0 0 26.458333 26.458333"
   version="1.1"
   id="svg1"
   inkscape:version="1.3.2 (091e20e, 2023-11-25)"
   sodipodi:docname="rect-missing-1.svg"
   xmlns:inkscape="http://www.inkscape.org/namespaces/inkscape"
   xmlns:sodipodi="http://sodipodi.sourceforge.net/DTD/sodipodi-0.dtd"
   xmlns="http://www.w3.org/2000/svg"
   xmlns:svg="http://www.w3.org/2000/svg">
  <sodipodi:namedview
     id="namedview1"
     pagecolor="#ffffff"
     bordercolor="#000000"
     borderopacity="0.25"
     inkscape:showpageshadow="2"
     inkscape:pageopacity="0.0"
     inkscape:pagecheckerboard="0"
     inkscape:deskcolor="#d1d1d1"
     inkscape:document-units="mm"
     inkscape:zoom="6.7277216"
     inkscape:cx="86.582061"
     inkscape:cy="47.787352"
     inkscape:window-width="1512"
     inkscape:window-height="848"
     inkscape:window-x="0"
     inkscape:window-y="38"
     inkscape:window-maximized="1"
     inkscape:current-layer="layer1" />
  <defs
     id="defs1" />
  <g
     inkscape:label="Layer 1"
     inkscape:groupmode="layer"
     id="layer1">
    <path
       id="rect1"
       style="fill:#000000;fill-opacity:1;stroke-width:0.352774"
       d="M 6.5055461 3.003951 C 4.5659178 3.003951 3.003951 4.5659178 3.003951 6.5055461 L 3.003951 19.952787 C 3.003951 21.892416 4.5659178 23.454382 6.5055461 23.454382 L 19.952787 23.454382 C 21.892416 23.454382 23.454382 21.892416 23.454382 19.952787 L 23.454382 6.5055461 C 23.454382 4.5659178 21.892416 3.003951 19.952787 3.003951 L 6.5055461 3.003951 z M 16.906462 7.5540609 C 17.276099 7.5540609 17.645386 7.695606 17.928621 7.9788411 L 18.479492 8.5297119 C 19.045963 9.0961822 19.045963 10.008078 18.479492 10.574548 L 10.574548 18.479492 C 10.008078 19.045963 9.0961822 19.045963 8.5297119 18.479492 L 7.9788411 17.928621 C 7.4123708 17.362151 7.4123708 16.450255 7.9788411 15.883785 L 15.883785 7.9788411 C 16.16702 7.695606 16.536824 7.5540609 16.906462 7.5540609 z " />
  </g>
</svg>
